<svg xmlns="http://www.w3.org/2000/svg" viewBox="0 0 440 100" fill="none">
  <defs>
    <style>
      @import url('https://fonts.googleapis.com/css2?family=Source+Sans+3:wght@700&amp;display=swap');
    </style>
  </defs>

  <!-- Wordmark -->
  <text
    x="0"
    y="82"
    fill="#8B154E"
    font-family="'Source Sans 3', 'Source Sans Pro', Arial, Helvetica, sans-serif"
    font-weight="700"
    font-size="76"
    letter-spacing="-1.5"
  >Eurowings</text>

  <!-- Wing emblem — four overlapping leaf shapes at ~40° angle -->
  <!-- Positioned above the "gs" letters -->

  <!-- Bottom magenta feather (largest, rightmost) -->
  <path d="M370 38 C372 35 374 33 377 32 L412 54 C414 56 414 58 412 60 L408 62 C406 64 404 64 401 62 L370 42 C368 40 368 39 370 38Z" fill="#8B154E"/>

  <!-- Second magenta feather -->
  <path d="M378 28 C380 25 382 23 385 22 L420 44 C422 46 422 48 420 50 L416 52 C414 54 412 54 409 52 L378 32 C376 30 376 29 378 28Z" fill="#8B154E"/>

  <!-- Grey/silver feather -->
  <path d="M386 18 C388 15 390 13 393 12 L428 34 C430 36 430 38 428 40 L424 42 C422 44 420 44 417 42 L386 22 C384 20 384 19 386 18Z" fill="#A8A9AD"/>

  <!-- Top cyan feather (smallest, leftmost at top) -->
  <path d="M394 8 C396 5 398 3 401 2 L436 24 C438 26 438 28 436 30 L432 32 C430 34 428 34 425 32 L394 12 C392 10 392 9 394 8Z" fill="#00B5E2"/>
</svg>
